<svg width="512" height="488" viewBox="0 0 512 488" fill="none" xmlns="http://www.w3.org/2000/svg">
<path d="M512 244C512 378.757 397.385 488 256 488C114.615 488 0 378.757 0 244C0 109.243 114.615 0 256 0C397.385 0 512 109.243 512 244Z" fill="white"/>
<path d="M484.5 248.5C484.5 373.221 379.16 474.5 249 474.5C118.84 474.5 13.5 373.221 13.5 248.5C13.5 123.779 118.84 22.5 249 22.5C379.16 22.5 484.5 123.779 484.5 248.5Z" fill="black" stroke="black" stroke-width="5"/>
<path d="M468 251.5C468 364.874 369.852 457 248.5 457C127.148 457 29 364.874 29 251.5C29 138.126 127.148 46 248.5 46C369.852 46 468 138.126 468 251.5Z" fill="white" fill-opacity="0.97" stroke="black" stroke-width="4"/>
<mask id="path-4-inside-1_0_1" fill="white">
<path d="M432.808 320.741C422.115 345.486 406.462 367.813 386.8 386.365C367.139 404.916 343.88 419.304 318.439 428.652C292.998 438 265.907 442.114 238.814 440.742C211.721 439.371 185.192 432.544 160.841 420.675L249 242.5L432.808 320.741Z"/>
</mask>
<path d="M432.808 320.741C422.115 345.486 406.462 367.813 386.8 386.365C367.139 404.916 343.88 419.304 318.439 428.652C292.998 438 265.907 442.114 238.814 440.742C211.721 439.371 185.192 432.544 160.841 420.675L249 242.5L432.808 320.741Z" stroke="black" stroke-width="8" mask="url(#path-4-inside-1_0_1)"/>
<path d="M435 188.5C435 224.257 408.007 253 375 253C341.993 253 315 224.257 315 188.5C315 152.743 341.993 124 375 124C408.007 124 435 152.743 435 188.5Z" stroke="black" stroke-width="4"/>
<path d="M311 109C311 134.366 289.996 155 264 155C238.004 155 217 134.366 217 109C217 83.6336 238.004 63 264 63C289.996 63 311 83.6336 311 109Z" stroke="black" stroke-width="4"/>
<path d="M195 142C195 165.43 178.215 184 158 184C137.785 184 121 165.43 121 142C121 118.57 137.785 100 158 100C178.215 100 195 118.57 195 142Z" stroke="black" stroke-width="4"/>
<circle cx="95.5" cy="220.5" r="32.5" stroke="black" stroke-width="4"/>
<path d="M256.5 320.5C256.5 362.973 220.736 397.5 176.5 397.5C132.264 397.5 96.5 362.973 96.5 320.5C96.5 278.027 132.264 243.5 176.5 243.5C220.736 243.5 256.5 278.027 256.5 320.5Z" fill="black" stroke="black" stroke-width="3"/>
<path d="M133.836 306H122.195V304.984H125.906V283.578H124.383C122.273 283.604 120.828 284.932 120.047 287.562L119.188 290.531H118.055L118.211 282.562H137.898L138.094 290.531H136.961L136.102 287.562C135.346 284.932 133.888 283.604 131.727 283.578H130.086V304.984H132.781C133.276 305.036 133.628 305.375 133.836 306Z" fill="black"/>
<path d="M155.984 306H144.344V304.984H148.055V283.578H146.531C144.422 283.604 142.977 284.932 142.195 287.562L141.336 290.531H140.203L140.359 282.562H160.047L160.242 290.531H159.109L158.25 287.562C157.495 284.932 156.036 283.604 153.875 283.578H152.234V304.984H154.93C155.424 305.036 155.776 305.375 155.984 306ZM170.359 305.023C170.516 305.023 170.659 305.036 170.789 305.062C171.128 305.141 171.297 305.453 171.297 306H162.352V305.023C163.003 305.023 163.51 304.971 163.875 304.867C164.656 304.659 165.047 303.969 165.047 302.797V281.586H162.352V280.609H168.797V292.719C169.031 292.146 169.357 291.599 169.773 291.078C171.049 289.594 172.703 288.852 174.734 288.852C175.516 288.852 176.245 289.008 176.922 289.32C178.953 290.232 179.969 292.185 179.969 295.18V305.023H181.648C181.831 305.023 181.987 305.036 182.117 305.062C182.456 305.115 182.625 305.427 182.625 306H173.953V305.023C174.656 305.023 175.164 304.958 175.477 304.828C175.945 304.594 176.18 303.917 176.18 302.797V294.906C176.18 294.255 176.102 293.643 175.945 293.07C175.451 291.508 174.435 290.727 172.898 290.727C172.299 290.727 171.714 290.896 171.141 291.234C169.578 292.172 168.797 293.826 168.797 296.195V305.023H170.359ZM198.68 306.391C196.727 306.365 195.555 305.193 195.164 302.875C194.956 303.396 194.656 303.891 194.266 304.359C193.068 305.714 191.479 306.391 189.5 306.391C188.693 306.391 187.951 306.26 187.273 306C185.477 305.297 184.578 303.904 184.578 301.82C184.578 301.43 184.617 301.052 184.695 300.688C185.346 297.927 188.797 296.508 195.047 296.43V293.93C195.021 291.247 193.953 289.88 191.844 289.828C191.323 289.828 190.88 289.919 190.516 290.102C190.021 290.388 189.604 291.052 189.266 292.094C189.188 292.354 189.122 292.549 189.07 292.68C188.758 293.539 188.198 293.969 187.391 293.969C187.182 293.969 186.974 293.943 186.766 293.891C185.984 293.656 185.594 293.122 185.594 292.289C185.594 291.846 185.737 291.404 186.023 290.961C186.987 289.555 189.044 288.852 192.195 288.852C196.544 288.878 198.745 290.896 198.797 294.906V303.109C198.823 304.385 199.148 305.049 199.773 305.102C200.581 305.076 201.076 304.138 201.258 302.289L202.273 302.328C202.247 302.927 202.169 303.461 202.039 303.93C201.622 305.57 200.503 306.391 198.68 306.391ZM191.102 304.789C191.492 304.789 191.896 304.698 192.312 304.516C193.693 303.917 194.604 302.706 195.047 300.883V297.484C193.51 297.51 192.26 297.641 191.297 297.875C189.422 298.344 188.484 299.464 188.484 301.234C188.484 301.599 188.51 301.938 188.562 302.25C188.823 303.943 189.669 304.789 191.102 304.789ZM212.273 305.023C212.43 305.023 212.573 305.036 212.703 305.062C213.042 305.141 213.211 305.453 213.211 306H203.484V305.023C204.318 305.023 204.943 304.958 205.359 304.828C206.089 304.594 206.453 303.904 206.453 302.758V281.586H203.484V280.609H210.203V305.023H212.273ZM223.484 305.023C223.667 305.023 223.823 305.036 223.953 305.062C224.292 305.115 224.461 305.427 224.461 306H215.203V305.023C215.854 305.023 216.362 304.984 216.727 304.906C217.56 304.672 217.977 303.969 217.977 302.797V290.297H215.203V289.32H221.727V305.023H223.484ZM222.156 283.852C222.156 284.242 222.078 284.607 221.922 284.945C221.479 285.831 220.737 286.273 219.695 286.273C219.331 286.273 218.979 286.195 218.641 286.039C217.729 285.622 217.273 284.893 217.273 283.852C217.273 283.461 217.365 283.083 217.547 282.719C217.99 281.833 218.706 281.391 219.695 281.391C220.086 281.391 220.464 281.482 220.828 281.664C221.714 282.133 222.156 282.862 222.156 283.852ZM231.609 303.891C231.609 304.229 231.531 304.568 231.375 304.906C230.932 305.766 230.242 306.195 229.305 306.195C228.966 306.195 228.641 306.13 228.328 306C227.443 305.583 227 304.88 227 303.891C227 303.552 227.078 303.214 227.234 302.875C227.651 301.99 228.341 301.547 229.305 301.547C229.669 301.547 230.021 301.638 230.359 301.82C231.193 302.263 231.609 302.953 231.609 303.891ZM118.406 344.758C118.406 342.674 118.914 340.878 119.93 339.367C121.492 337.023 123.849 335.852 127 335.852C128.667 335.852 130.138 336.203 131.414 336.906C132.951 337.766 133.719 338.807 133.719 340.031C133.719 340.188 133.693 340.357 133.641 340.539C133.432 341.451 132.768 341.893 131.648 341.867C131.206 341.841 130.828 341.737 130.516 341.555C130.099 341.268 129.799 340.565 129.617 339.445C129.565 339.003 129.513 338.69 129.461 338.508C129.174 337.388 128.38 336.828 127.078 336.828C124.083 336.854 122.573 339.445 122.547 344.602C122.547 346.112 122.716 347.427 123.055 348.547C123.836 351.047 125.333 352.297 127.547 352.297C127.964 352.297 128.38 352.258 128.797 352.18C130.802 351.815 132.234 350.695 133.094 348.82L134.109 349.133C133.875 349.706 133.562 350.24 133.172 350.734C131.766 352.505 129.708 353.391 127 353.391C125.203 353.391 123.602 352.974 122.195 352.141C119.669 350.63 118.406 348.169 118.406 344.758ZM139.852 344.602C139.852 345.461 139.891 346.242 139.969 346.945C140.333 350.591 141.818 352.414 144.422 352.414C147.365 352.362 148.862 349.706 148.914 344.445C148.914 343.43 148.862 342.505 148.758 341.672C148.315 338.443 146.857 336.828 144.383 336.828C141.622 337.036 140.112 339.628 139.852 344.602ZM144.5 335.852C146.427 335.852 148.133 336.359 149.617 337.375C151.909 338.99 153.055 341.372 153.055 344.523C153.055 346.867 152.339 348.859 150.906 350.5C149.214 352.427 147.013 353.391 144.305 353.391C142.326 353.391 140.581 352.818 139.07 351.672C136.831 350.005 135.711 347.596 135.711 344.445C135.711 342.18 136.401 340.266 137.781 338.703C139.474 336.802 141.714 335.852 144.5 335.852ZM163.211 352.023C163.367 352.023 163.497 352.036 163.602 352.062C163.992 352.115 164.188 352.427 164.188 353H155.477V352.023C156.128 352.023 156.635 351.971 157 351.867C157.755 351.659 158.133 350.969 158.133 349.797V337.297H155.477V336.32H161.648L161.844 339.797C162.026 339.406 162.234 339.016 162.469 338.625C163.667 336.776 165.32 335.852 167.43 335.852C167.872 335.852 168.328 335.93 168.797 336.086C170.385 336.607 171.453 337.857 172 339.836C172.156 339.471 172.339 339.12 172.547 338.781C173.745 336.828 175.424 335.852 177.586 335.852C178.471 335.852 179.305 336.073 180.086 336.516C181.831 337.583 182.703 339.445 182.703 342.102V352.023H184.422C184.604 352.023 184.76 352.036 184.891 352.062C185.229 352.115 185.398 352.427 185.398 353H176.648V352.023C177.352 352.023 177.859 351.958 178.172 351.828C178.693 351.594 178.953 350.917 178.953 349.797V341.672C178.953 340.917 178.836 340.227 178.602 339.602C178.107 338.273 177.247 337.609 176.023 337.609C175.607 337.609 175.19 337.714 174.773 337.922C173.445 338.625 172.612 339.953 172.273 341.906V342.18V352.023H173.602C173.784 352.023 173.94 352.036 174.07 352.062C174.409 352.115 174.578 352.427 174.578 353H166.219V352.023C166.896 352.023 167.404 351.958 167.742 351.828C168.289 351.594 168.562 350.917 168.562 349.797V341.672C168.562 340.891 168.458 340.201 168.25 339.602C167.755 338.299 166.935 337.648 165.789 337.648C165.294 337.648 164.786 337.805 164.266 338.117C162.885 339.003 162.104 340.5 161.922 342.609L161.883 352.023H163.211Z" fill="white"/>
</svg>
